<?xml version="1.0" encoding="utf-8"?>
<!-- Generator: Adobe Illustrator 20.1.0, SVG Export Plug-In . SVG Version: 6.00 Build 0)  -->
<svg version="1.1" id="レイヤー_1" xmlns="http://www.w3.org/2000/svg" xmlns:xlink="http://www.w3.org/1999/xlink" x="0px"
	 y="0px" viewBox="0 0 1000 1000" style="enable-background:new 0 0 1000 1000;" xml:space="preserve">
<g>
	<path d="M124,136.7c-4,8.1-8.3,15.8-12.9,23.1c-4.6,7.3-9.4,14.5-14.2,21.7c4.6,0.3,9,0.6,13.4,1c4.3,0.4,8.7,0.7,12.9,0.9
		c3-5,5.9-9.9,8.9-14.9c3-5,5.8-9.7,8.4-14.4c2.6-4.6,5-9,7.1-13.1c2.1-4.1,3.7-7.7,4.9-10.9c2.2,1.1,3.9,2.3,5.1,3.8
		c1.2,1.5,2.1,3,2.6,4.6c0.5,1.6,0.7,3.2,0.6,4.8c-0.1,1.6-0.4,3.1-0.9,4.3c-2.1,5.7-4.8,11.6-8.1,17.6c-3.3,6-6.9,12.2-10.9,18.4
		c6.6-0.4,12.2-1.4,16.8-3c4.6-1.6,7.8-4.4,9.7-8.4c0.3-0.6,0.8-0.9,1.6-1.1c0.8-0.1,1.6-0.1,2.3,0.2c0.7,0.3,1.2,0.7,1.6,1.4
		c0.3,0.6,0.2,1.4-0.5,2.4c-3.4,4.9-8.2,8.3-14.4,10.4c-6.2,2.1-13.2,3.5-21,4.1c-3.1,5-6.2,9.9-9.2,14.8c-3,4.9-5.7,9.7-8.2,14.4
		c-2.5,4.7-4.6,9.2-6.3,13.5c-1.7,4.3-2.8,8.4-3.3,12.1c-3.8-2-6.6-4.6-8.5-7.7s-2-7.2-0.4-12.2c1.4-4,3.8-9,7-15
		c3.2-6,6.9-12.4,11-19.3c-4.6,0-9.2-0.1-13.8-0.2c-4.6-0.1-9.4-0.3-14.2-0.5c-3.3,5.1-6.5,10.3-9.5,15.4c-3,5.1-5.6,10.2-7.9,15.4
		c-2.2,5.2-4,10.5-5.3,15.8c-1.3,5.3-1.9,10.9-1.9,16.6c-3.6,0.7-6.8,0.7-9.4,0.1c-2.7-0.6-4.8-1.5-6.5-2.8
		c-1.7-1.3-2.9-2.8-3.6-4.6c-0.7-1.8-0.9-3.6-0.5-5.4c0.9-4.4,0.9-8.8,0-13.2c-0.9-4.4-2.6-8.2-5.4-11.4c-2.7-3.2-6.4-5.6-11.1-7.2
		c-4.7-1.6-10.3-1.8-17-0.6c-0.7,0.2-1.1,0.1-1.1-0.1s0-0.8,0.2-1.4c0.2-0.7,0.6-1.4,1.1-2.3c0.5-0.9,1.1-1.8,1.8-2.9
		c2.8-4.3,6.5-7.8,11.1-10.4c4.6-2.7,10.1-5.1,16.4-7.3c4.9-1.5,10.3-2.5,16.2-2.8c6-0.3,12.1-0.4,18.4-0.2
		c6.3-9.2,12.2-18.7,17.7-28.2c5.5-9.6,10.7-20.3,15.7-32.1c-0.4-1.8-2-2.8-4.9-2.9c-2.9-0.1-6.4,0.4-10.6,1.4
		c-4.2,1-8.8,2.4-13.8,4.1c-5,1.7-9.9,3.5-14.6,5.3c-4.7,1.8-9,3.5-12.9,5c-3.9,1.5-6.7,2.6-8.7,3.1c-5.4,1.5-10.1,2.3-13.9,2.4
		c-3.8,0-7-0.4-9.5-1.2c-2.5-0.9-4.6-2-6.1-3.5c-1.5-1.5-2.7-2.9-3.6-4.4s-1.5-2.7-1.9-3.8c-0.4-1.1-0.8-1.7-1.1-1.9
		c3.7,2,7.5,3.1,11.4,3.1c3.9,0.1,8.1-0.2,12.7-1c3.2-0.6,7.2-1.5,12-2.9c4.8-1.4,9.9-2.9,15.4-4.4c5.5-1.6,11.1-3,16.9-4.3
		c5.8-1.3,11.4-2.1,16.8-2.6c5.4-0.4,10.4-0.2,15,0.6c4.6,0.8,8.5,2.6,11.5,5.4l1.3,1.6c2.6,2.4,4,5.2,4.1,8.4
		C126.3,130.6,125.6,133.7,124,136.7z M54.3,222.4c1.9-6,4.3-11.7,7.3-17.2c3-5.5,6.1-10.8,9.4-15.9c-4.3,0.1-8.4,0.3-12.2,0.7
		c-3.9,0.4-7.5,1-10.9,1.8c-3.4,0.8-6.4,1.9-9.2,3.4c-2.7,1.4-5,3.2-6.8,5.3c3.8,1.1,7,2.1,9.4,3.2c2.5,1.1,4.5,2.5,6.1,4.1
		c1.6,1.6,2.9,3.6,3.9,5.9C52.6,216,53.5,218.9,54.3,222.4z"/>
	<path d="M180,189.5c0.4-0.6,1.5-0.8,3.5-0.6c2,0.1,4,0.5,6.1,1.1c2.1,0.6,3.9,1.3,5.5,2.1c1.6,0.8,2.2,1.5,1.8,2.1
		c-4.3,5.1-7.7,10.1-10.2,14.8c-2.5,4.7-4.3,8.5-5.4,11.2c-1,2.6-1.5,4.3-1.4,5.3c0.1,1,0.7,1.4,1.6,1.2c0.9-0.1,2.1-0.7,3.5-1.8
		c1.4-1,2.9-2.3,4.4-3.7c3.1-3,6.5-6.2,10.2-9.9c3.6-3.6,7.3-7.5,11-11.6c3.7-4.1,7.4-8.3,11.2-12.7c3.7-4.4,7.2-8.8,10.6-13.2
		c0.6-0.7,1.2-1,1.9-1.1c0.7,0,1.2,0.1,1.7,0.4c0.5,0.3,0.8,0.7,1.1,1.2c0.2,0.5,0.2,1.1-0.2,1.6c-4.7,5.1-9.4,10.7-14.2,16.7
		c-4.8,6-9.6,11.7-14.2,17.2c-4.7,5.5-9.2,10.4-13.7,14.7c-4.4,4.3-8.6,7.4-12.5,9.2c-3.6-0.1-6.6-0.5-9-1.1
		c-2.4-0.6-4.2-1.4-5.6-2.3c-1.3-0.9-2.2-2-2.6-3.1c-0.4-1.2-0.4-2.5,0-3.8c0.7-2.5,1.3-4.7,1.9-6.7c0.6-2,1.1-3.9,1.7-5.6
		c-1.5,2.1-3,4.2-4.3,6.4c-1.3,2.2-2.6,4.2-3.9,6.1c-1.2,1.9-2.5,3.6-3.7,5.2c-1.2,1.6-2.6,2.8-4,3.8c-0.6,0.5-1.7,0.5-3.3,0
		c-1.6-0.5-3.4-1.2-5.2-2.1c-1.9-1-3.6-2-5.3-3c-1.7-1-2.8-2-3.4-2.7c-1.1-1.3-1.5-3.5-1.1-6.5c0.4-3,1.4-6.4,3-10.3
		c1.6-3.9,3.6-7.9,6.2-12c2.6-4.1,5.4-8.1,8.5-11.7c3.1-3.7,6.4-6.8,9.8-9.4c3.4-2.6,6.9-4.3,10.3-5.1c2.7-0.6,5.4-0.3,8.2,0.7
		c2.8,1.1,6,2.7,9.7,4.9c2.1,1.2,3.2,2.6,3.4,4c0.2,1.4-0.1,3.4-1,6c-2.2,1.8-3.6,2.3-4.3,1.6c-0.7-0.8-0.8-2-0.3-3.6
		c0.1-0.7,0-1.4-0.2-2.2c-0.2-0.8-0.7-1.5-1.3-2.1c-0.6-0.6-1.4-0.9-2.4-1.1c-1-0.1-2.1,0.1-3.4,0.8c-3.1,1.5-6.3,3.7-9.4,6.4
		c-3.1,2.8-6.1,5.9-8.8,9.3c-2.7,3.4-5.1,7-7.1,10.7c-2,3.7-3.4,7.2-4.3,10.7c-0.8,3.1-1.1,5.2-0.9,6.2c0.2,1,0.7,1.3,1.5,0.9
		c0.8-0.4,1.8-1.4,2.9-2.9c1.1-1.5,2.3-3.1,3.4-4.9c2.5-4,5.3-8.1,8.5-12.4c3.2-4.2,7.2-8,12.1-11.4L180,189.5z"/>
	<path d="M249.1,174.9l0.1-0.1c1.3-1,2.8-2,4.4-3.1c1.6-1.1,3.3-2.1,5-2.9c2.6-0.6,5-0.5,7.2,0.1c2.2,0.6,4.1,1.6,5.6,2.8
		c1.6,1.2,2.8,2.6,3.8,4.2c1,1.6,1.5,3.1,1.6,4.5c0.3,2.1-0.1,4.5-1.1,7.1c-1.1,2.7-2.6,5.4-4.6,8.3c-2,2.9-4.4,5.7-7.2,8.4
		c-2.8,2.8-5.8,5.2-8.9,7.4c-3.1,2.2-6.4,4-9.9,5.4s-6.8,2.2-10,2.4c0.1,1.1,0.6,2.1,1.4,2.9c0.9,0.8,2,1.4,3.4,1.7
		c1.4,0.3,3.2,0.3,5.2,0c2-0.3,4.4-1.1,6.9-2.4c5.4-2.8,10.3-6,14.7-9.7c4.3-3.7,8.4-7.6,12.2-11.7c3.8-4.1,7.4-8.4,10.9-12.8
		c3.5-4.4,7.1-8.7,10.9-12.9c0.5-0.6,1-0.9,1.7-1.1c0.7-0.1,1.3-0.1,1.9,0.1c0.6,0.2,1,0.5,1.3,1c0.3,0.5,0.3,1.1,0,1.7
		c-3.2,4.4-6.6,8.7-10,12.8c-3.4,4.1-7.1,8.7-10.9,13.5c-1.8,2.3-3.8,4.8-6,7.4c-2.2,2.7-4.6,5.3-7.2,7.8c-2.6,2.5-5.3,4.9-8.1,7.1
		c-2.8,2.2-5.8,4.1-8.9,5.6c-1.7,0.9-3.5,1.6-5.2,2.3c-1.8,0.7-3.6,1.2-5.6,1.5c-2,0.3-4,0.4-6,0.2c-2.1-0.2-4.1-0.8-6.2-1.7
		c-1.6-0.8-3.1-1.8-4.4-3.1c-1.3-1.3-2.4-2.8-3.1-4.4c-0.7-1.6-1.1-3.2-1-4.9c0-1.7,0.6-3.4,1.8-5c1.4,0.5,3.5,0,6.1-1.3
		c2.7-1.3,5.5-3.2,8.5-5.6c3-2.4,6-5.1,9.1-8.2c3-3.1,5.6-6.2,7.8-9.4c2.1-3.1,3.6-6.1,4.5-8.9c0.9-2.8,0.7-5-0.6-6.7
		c-0.6-0.6-1.6-0.6-2.9,0c-1.4,0.6-2.5,1.1-3.2,1.6c-2.5,1.3-4.7,2.7-6.6,4.1c-2,1.4-3.9,3-5.9,4.6c-1.1,0.8-3,2.8-5.4,6.2
		c-2.5,3.4-5.3,7.5-8.4,12.3c-3.1,4.8-6.3,10.1-9.7,15.9c-3.4,5.8-6.6,11.5-9.6,17.2c-3,5.6-5.6,10.9-7.9,15.9s-3.9,9.1-4.7,12.4
		c-0.2,0.8-1.1,1.1-2.9,1.1c-1.7,0-3.5-0.4-5.4-1.1c-1.9-0.7-3.5-1.6-4.8-2.6c-1.3-1.1-1.8-2.3-1.3-3.5c2.1-4.5,4.6-9.9,7.5-16.2
		c2.9-6.3,6.3-13.1,10.2-20.3c3.9-7.2,8.2-14.7,12.9-22.5c4.8-7.8,10.1-15.3,15.9-22.7c0.7-0.9,1.3-1.7,1.9-2.4
		c0.6-0.8,1.2-1.6,1.9-2.5c0.7-0.9,1.5-2,2.4-3.1c0.9-1.2,2-2.6,3.4-4.2c0.1-0.3,0.7-0.5,1.9-0.8c1.1-0.2,2.5-0.4,4-0.6
		c1.5-0.1,3.1-0.2,4.6-0.1c1.6,0,2.9,0.2,4.1,0.6c1.1,0.3,1.9,0.9,2.2,1.6c0.3,0.7,0,1.6-0.9,2.8L249.1,174.9z"/>
	<path d="M318.2,174.9l0.1-0.1c1.3-1,2.8-2,4.4-3.1c1.6-1.1,3.3-2.1,5-2.9c2.6-0.6,5-0.5,7.2,0.1c2.2,0.6,4.1,1.6,5.6,2.8
		c1.6,1.2,2.8,2.6,3.8,4.2c1,1.6,1.5,3.1,1.6,4.5c0.3,2.1-0.1,4.5-1.1,7.1c-1.1,2.7-2.6,5.4-4.6,8.3c-2,2.9-4.4,5.7-7.2,8.4
		c-2.8,2.8-5.8,5.2-8.9,7.4c-3.1,2.2-6.4,4-9.9,5.4s-6.8,2.2-10,2.4c0.1,1.1,0.6,2.1,1.4,2.9c0.9,0.8,2,1.4,3.4,1.7
		c1.4,0.3,3.2,0.3,5.2,0c2-0.3,4.4-1.1,6.9-2.4c5.4-2.8,10.3-6,14.7-9.7c4.3-3.7,8.4-7.6,12.2-11.7c3.8-4.1,7.4-8.4,10.9-12.8
		c3.5-4.4,7.1-8.7,10.9-12.9c0.5-0.6,1-0.9,1.7-1.1c0.7-0.1,1.3-0.1,1.9,0.1c0.6,0.2,1,0.5,1.3,1c0.3,0.5,0.3,1.1,0,1.7
		c-3.2,4.4-6.6,8.7-10,12.8c-3.4,4.1-7.1,8.7-10.9,13.5c-1.8,2.3-3.8,4.8-6,7.4c-2.2,2.7-4.6,5.3-7.2,7.8c-2.6,2.5-5.3,4.9-8.1,7.1
		c-2.8,2.2-5.8,4.1-8.9,5.6c-1.7,0.9-3.5,1.6-5.2,2.3c-1.8,0.7-3.6,1.2-5.6,1.5c-2,0.3-4,0.4-6,0.2c-2.1-0.2-4.1-0.8-6.2-1.7
		c-1.6-0.8-3.1-1.8-4.4-3.1c-1.3-1.3-2.4-2.8-3.1-4.4c-0.7-1.6-1.1-3.2-1-4.9c0-1.7,0.6-3.4,1.8-5c1.4,0.5,3.5,0,6.1-1.3
		c2.7-1.3,5.5-3.2,8.5-5.6c3-2.4,6-5.1,9.1-8.2c3-3.1,5.6-6.2,7.8-9.4c2.1-3.1,3.6-6.1,4.5-8.9c0.9-2.8,0.7-5-0.6-6.7
		c-0.6-0.6-1.6-0.6-2.9,0c-1.4,0.6-2.5,1.1-3.2,1.6c-2.5,1.3-4.7,2.7-6.6,4.1c-2,1.4-3.9,3-5.9,4.6c-1.1,0.8-3,2.8-5.4,6.2
		c-2.5,3.4-5.3,7.5-8.4,12.3c-3.1,4.8-6.3,10.1-9.7,15.9c-3.4,5.8-6.6,11.5-9.6,17.2c-3,5.6-5.6,10.9-7.9,15.9s-3.9,9.1-4.7,12.4
		c-0.2,0.8-1.1,1.1-2.9,1.1c-1.7,0-3.5-0.4-5.4-1.1c-1.9-0.7-3.5-1.6-4.8-2.6c-1.3-1.1-1.8-2.3-1.3-3.5c2.1-4.5,4.6-9.9,7.5-16.2
		c2.9-6.3,6.3-13.1,10.2-20.3c3.9-7.2,8.2-14.7,12.9-22.5c4.8-7.8,10.1-15.3,15.9-22.7c0.7-0.9,1.3-1.7,1.9-2.4
		c0.6-0.8,1.2-1.6,1.9-2.5c0.7-0.9,1.5-2,2.4-3.1c0.9-1.2,2-2.6,3.4-4.2c0.1-0.3,0.7-0.5,1.9-0.8c1.1-0.2,2.5-0.4,4-0.6
		c1.5-0.1,3.1-0.2,4.6-0.1c1.6,0,2.9,0.2,4.1,0.6c1.1,0.3,1.9,0.9,2.2,1.6c0.3,0.7,0,1.6-0.9,2.8L318.2,174.9z"/>
	<path d="M420.4,175.5c-2.4,2.9-4.7,5.9-7,9.2c-2.3,3.3-4.5,6.6-6.7,10.1c-2.2,3.4-4.3,6.8-6.3,10.2c-2,3.4-3.9,6.6-5.7,9.5
		c9.4-5.1,18-11,25.7-17.7c7.7-6.6,14.7-13.3,21.1-19.9c0.7-0.5,1.4-0.7,2.1-0.7s1.3,0.2,1.8,0.5c0.5,0.3,0.8,0.8,0.9,1.3
		c0.1,0.5-0.1,1.1-0.7,1.6c-2.6,2.8-5.4,5.7-8.4,8.9c-3,3.2-6.7,6.7-11,10.6c-4.3,3.9-9.6,8.1-15.8,12.8
		c-6.2,4.7-13.8,9.9-22.7,15.6c-2.5,4.5-5,8.9-7.5,13.2c-2.5,4.3-5.1,8.7-7.8,12.9c-2.7,4.4-4.8,7.8-6.4,10.4
		c-1.6,2.5-3.1,4.7-4.6,6.6c-2.8,3.4-5.7,6.5-8.9,9.1c-3.1,2.6-6.5,3.9-10,3.9c-1.8,0-3.8-0.6-6-1.7c-2.2-1.1-4-2.7-5.4-4.7
		c-1.4-2-2.1-4.3-2.1-6.9c0-2.6,1.2-5.3,3.6-8.2c1.5-1.8,3.7-4,6.6-6.6c2.9-2.6,6-5.2,9.3-7.9c3.3-2.7,6.5-5.2,9.7-7.7
		c3.1-2.4,5.8-4.4,8-5.9c2-3.8,4.2-7.8,6.5-11.9c2.3-4.1,4.7-8.4,7.2-12.8c-1.5,1.7-3.2,3.6-5,5.8c-1.8,2.1-3.6,4.3-5.3,6.4
		c-1.7,2.1-3.3,4-4.8,5.7c-1.5,1.7-2.6,3-3.5,3.9c-1.7,1.5-3.9,2-6.5,1.3c-2.6-0.7-5.1-1.8-7.5-3.5c-2.4-1.7-4.4-3.5-6.1-5.4
		c-1.7-1.9-2.4-3.3-2.2-4.3c3.7-8.7,8-16.9,12.8-24.7c4.8-7.8,10.1-15.5,15.8-23.2c0.5-0.6,1.6-0.9,3.4-0.9c1.8,0,3.7,0.1,5.6,0.4
		c1.9,0.3,3.6,0.7,5.1,1.3c1.5,0.6,2.2,1.2,2.1,1.9c-6,8.1-11.4,15.8-16.2,23.2c-4.8,7.3-8.6,14.6-11.4,21.7c-0.8,1.7-1,2.9-0.6,3.6
		c0.4,0.7,1,1,2,0.9c1-0.1,2-0.5,3.3-1.2c1.2-0.7,2.3-1.6,3.3-2.6c1.2-1.2,3.1-3.3,5.6-6.1c2.5-2.8,5.2-5.9,8.1-9.4
		c2.9-3.4,5.8-6.9,8.8-10.4c3-3.5,5.5-6.5,7.7-8.9c1.4-2.3,2.8-4.6,4.2-6.8c1.4-2.2,2.7-4.4,4.1-6.5c0.3-0.6,1.4-0.8,3.4-0.7
		c2,0.1,4.1,0.4,6.3,0.9c2.2,0.5,4.1,1.1,5.9,1.8C420,174.3,420.7,174.9,420.4,175.5z M362.8,242.4c-4.3,3.3-8.8,6.8-13.6,10.3
		c-4.8,3.5-9,7.2-12.6,11.2c-1,1.1-1.9,2.2-2.6,3.3c-0.7,1-1,2.2-0.8,3.4c0.3,1.4,1.2,2.4,2.7,2.8c1.5,0.4,2.8,0.4,3.9-0.1
		c2.4-0.9,5.4-3.9,8.9-9.1C352.3,259,357,251.8,362.8,242.4z"/>
	<path d="M69.6,427.6c2.5-3.8,4.7-7.5,6.7-10.9c2-3.5,3.9-6.9,5.8-10.3c1.9-3.4,3.7-6.8,5.4-10.3c1.8-3.5,3.6-7.2,5.6-11.1
		c2.6-5.1,3.6-8.7,3.2-11c-0.4-2.3-1.8-3.6-4.1-4c-2.3-0.4-5.4,0-9.1,1c-3.7,1.1-7.5,2.4-11.4,3.9c-3.9,1.6-7.7,3.1-11.3,4.7
		c-3.6,1.6-6.5,2.7-8.7,3.4c-5.2,1.5-9.7,2.3-13.4,2.4c-3.7,0-6.8-0.4-9.4-1.2c-2.5-0.9-4.5-2-6-3.4c-1.5-1.4-2.6-2.9-3.5-4.3
		c-0.9-1.4-1.5-2.7-1.9-3.8c-0.4-1.1-0.8-1.7-1.1-1.9c3.6,1.9,7.3,2.9,11.1,3c3.8,0.1,7.9-0.2,12.5-1c3.1-0.6,6.6-1.5,10.5-2.7
		c3.9-1.2,7.9-2.5,12.1-3.8c4.2-1.3,8.4-2.5,12.7-3.6c4.3-1.1,8.5-1.7,12.6-1.9c4.1-0.2,8,0.2,11.7,1.2c3.7,1,7.1,2.9,10,5.6
		c2.8,2.6,4.3,5.4,4.7,8.4c0.4,3-0.3,6.6-2,10.7c-1.7,4.1-4.4,8.9-8.1,14.4c-3.7,5.5-8.2,12.2-13.5,19.9c-0.3,0.3-0.6,0.7-0.9,1.2
		c-0.3,0.5-0.5,0.9-0.6,1.2c0,0.3,0.1,0.3,0.4,0.1c0.3-0.2,1-0.9,2.1-2c3.8-4.2,7.8-9,11.9-14.3c4.1-5.3,8.1-10.5,11.9-15.6
		c3.9-5.1,7.6-9.6,11.1-13.7c3.5-4.1,6.6-7,9.3-8.7c1.7-1,3.4-1.7,5.1-1.9c1.7-0.2,3.2-0.3,4.6-0.1c1.4,0.2,2.7,0.5,3.9,1
		c1.1,0.5,2,0.9,2.6,1.1c3.8,2,6.8,4.7,8.9,8c2.1,3.3,3.3,6.9,3.6,10.8s-0.3,7.8-1.9,11.9c-1.5,4.1-3.9,7.9-7.1,11.5
		c-3.2,3.6-7.3,6.7-12.2,9.4c-5,2.7-10.7,4.5-17.3,5.6c3.8,0.5,6.7,2,8.6,4.6c1.9,2.6,2.9,5.8,3,9.6c0.1,3.8-0.7,8.1-2.4,12.7
		c-1.7,4.7-4.1,9.4-7.4,14.2c-3.3,4.8-7.4,9.4-12.3,13.9c-4.9,4.5-10.6,8.4-16.9,11.9c-6.4,3.4-13.5,6.1-21.3,8.2
		c-7.8,2-16.3,2.9-25.5,2.6c-6.9-0.2-12.7-1.4-17.5-3.6c-4.8-2.2-8.8-4.9-11.9-8.2c-3.1-3.3-5.4-6.8-6.8-10.7
		c-1.4-3.8-2.1-7.4-2.1-10.9c-0.2-4.3,0.5-8.8,2.1-13.7c1.6-4.8,4.2-9.3,7.9-13.5c3.6-4.2,8.3-7.8,14-10.9c5.7-3.1,12.6-5,20.6-5.7
		C62.2,426.4,66,426.7,69.6,427.6z M62.2,439.2c-1.9-0.1-3.9-0.1-6,0c-5.6,0.6-10.8,2.5-15.5,5.7c-4.7,3.2-8.6,7.1-11.6,11.6
		c-3,4.5-5,9.2-5.9,14.2c-0.9,5-0.4,9.6,1.4,13.7c1.9,4.1,5.3,7.5,10.3,10c5,2.5,11.9,3.6,20.8,3.1c6.1-0.4,11.7-1.7,16.7-4
		c5.1-2.3,9.6-5,13.7-8c4.1-3,7.6-6.2,10.7-9.5c3.1-3.3,5.7-6.1,7.9-8.4c1.4-1.6,3-3.6,4.6-5.9c1.7-2.3,3.1-4.7,4.4-7.2
		c1.3-2.5,2.3-5,3-7.5c0.7-2.5,0.8-4.8,0.4-6.8c-0.5-2-1.7-3.7-3.6-5c-1.9-1.3-4.8-2.1-8.7-2.3c-0.8,0-1.3-0.4-1.7-1.3
		c-0.4-0.9-0.6-1.9-0.6-3.1c0-1.2,0-2.4,0.2-3.6c0.2-1.2,0.4-2.1,0.7-2.8c2.2-0.3,5-0.9,8.5-1.9c3.5-1,7.1-2.3,10.9-4
		c3.8-1.7,7.4-3.6,11-5.9s6.6-4.9,8.9-7.7c2.4-2.9,3.9-6,4.6-9.4c0.7-3.4,0.1-7.1-1.8-11c-1.4-2.8-3.3-4.2-5.6-4.4s-4.7,1.2-7.3,3.9
		c-7.7,8.1-15.2,16.9-22.5,26.5c-7.3,9.5-14.8,18.9-22.5,28.2c2.1,2,3.7,4.1,4.8,6.4c1.1,2.2,1.6,4.5,1.4,6.7
		c-0.1,2.2-1,4.4-2.6,6.4c-1.6,2-4,3.8-7.2,5.3c-1-5.4-2.8-10.1-5.6-14c-2,2.3-4,4.5-6.1,6.7c-2.1,2.2-4.1,4.3-6.1,6.4
		c-0.8,0.7-1.8,0.6-3.2-0.1c-1.4-0.8-2.7-1.8-3.9-3.1c-1.2-1.3-2.2-2.7-3-4.1c-0.8-1.4-0.9-2.5-0.4-3.3L62.2,439.2z"/>
	<path d="M166.7,421.9c0.4-0.6,1.6-0.8,3.6-0.7c2,0.1,4.1,0.4,6.2,0.9c2.1,0.5,4,1.1,5.6,1.8c1.6,0.7,2.2,1.3,1.9,1.9
		c-6.5,7.4-12.3,14.9-17.4,22.5c-5.1,7.6-9.5,15.9-13.2,25c-1.1,2.3-1,3.4,0.2,3.4c1.2,0,2.8-0.6,4.8-1.8c2-1.1,4.1-2.5,6.3-4.2
		c2.2-1.7,3.9-3,5-3.9c3.2-3,6.6-6.2,9.9-9.7c3.4-3.5,6.7-7.1,10.1-10.7c3.3-3.7,6.6-7.3,9.7-10.9c3.1-3.6,6.1-7.1,9-10.4
		c1.3-0.8,2.6-0.9,3.8-0.4c1.2,0.5,1.4,1.4,0.6,2.5c-4.7,5.1-9.4,10.8-14.2,16.9c-4.8,6.1-9.5,11.9-14.3,17.4
		c-4.8,5.5-9.4,10.4-14,14.5s-9,6.8-13.2,7.9c-7.4-0.3-12.8-1.4-16-3.4c-3.2-2-4.6-4.4-4.1-7.2c0.8-4,2.2-8.2,4.3-12.7
		c2.1-4.5,4.6-9,7.4-13.5c2.8-4.5,5.8-8.9,8.9-13.2S163.9,425.5,166.7,421.9z M190.1,389.7c1-0.6,2.4-0.5,4.2,0.1
		c1.9,0.6,3.7,1.5,5.5,2.6c1.8,1.1,3.3,2.2,4.6,3.4c1.2,1.2,1.7,2.1,1.4,2.6c-2.6,2-4.7,3.7-6.4,5.2c-1.7,1.5-3.3,2.9-4.8,4.1
		c-1.5,1.3-3,2.6-4.6,3.9c-1.6,1.3-3.5,3-5.8,4.9c-0.8,0.5-1.7,0.6-2.7,0.4c-1.1-0.2-2-0.5-2.9-1.1c-0.9-0.5-1.5-1.1-2-1.9
		c-0.5-0.7-0.5-1.5,0-2.2c0.5-1,1.1-2.3,1.9-3.9c0.8-1.7,1.8-3.5,2.9-5.5c1.1-2,2.4-4.1,3.8-6.3C186.6,394,188.2,391.8,190.1,389.7z
		"/>
	<path d="M213.1,409.5c1.8-1.1,3.6-1.5,5.4-1c1.8,0.5,3.4,1.3,4.6,2.4c1.3,1.1,2.1,2.3,2.6,3.6s0.2,2.2-0.6,2.6
		c-1.1,0.7-2.3,1.6-3.8,2.7c-1.5,1.1-2.9,2.3-4.2,3.6c-1.3,1.2-2.4,2.4-3.2,3.4c-0.8,1.1-1.1,1.8-0.9,2.4c0.2,0.5,1.1,0.7,2.7,0.5
		c1.6-0.2,4.1-1,7.7-2.3c1.8-0.1,3.6,0.1,5.4,0.6c1.8,0.5,3.3,1.1,4.5,1.8c1.2,0.7,2.1,1.5,2.5,2.2c0.4,0.8,0.2,1.3-0.6,1.7
		c-4,3.1-7.4,6-10.3,8.7c-2.9,2.6-5.3,5.3-7.4,7.9c-2.1,2.7-3.9,5.5-5.4,8.5c-1.5,3-2.9,6.4-4,10.2c0.9,2.8,2.5,4.1,4.8,3.9
		c2.3-0.1,5.1-1.3,8.3-3.4c3.2-2.1,6.7-4.9,10.4-8.4c3.8-3.5,7.5-7.3,11.3-11.3c3.8-4,7.4-8,10.8-11.9c3.4-4,6.4-7.4,9-10.4
		c0.6-0.4,1.1-0.5,1.7-0.5c0.6,0,1.1,0.2,1.5,0.5c0.4,0.3,0.7,0.7,0.9,1.1c0.1,0.5,0,1-0.4,1.4c-2.9,3.7-6,7.7-9.3,11.8
		c-3.3,4.1-6.7,8.3-10.2,12.4c-3.5,4.1-7,8.1-10.5,11.9c-3.5,3.8-6.9,7.1-10.1,9.9c-3.2,2.8-6.2,5-9,6.6c-2.8,1.6-5.2,2.3-7.2,2
		c-3,0.3-5.8,0-8.6-1c-2.8-1-5.1-2.3-7-3.9c-1.9-1.7-3.3-3.6-4.2-5.6c-0.9-2.1-1-4.2-0.2-6.3c1.2-3.7,2.6-6.9,4.1-9.4
		c1.5-2.6,3.1-5,4.8-7.2c1.7-2.2,3.4-4.3,5.1-6.4c1.8-2.1,3.5-4.5,5.2-7.3c-3.8,0.2-7.1-0.2-9.8-1.3c-2.7-1-4.1-3.1-4.1-6.3
		c0-1.7,0.5-3.6,1.6-5.6c1-2,2.4-4,4.1-5.9c1.7-2,3.6-3.7,5.7-5.3C208.9,411.5,211,410.3,213.1,409.5z"/>
	<path d="M274.3,406c4.2-5.6,7.5-10,9.9-13.1c2.4-3.1,4.6-5.6,6.5-7.5c0.4-0.6,1.3-0.6,2.7,0c1.4,0.6,2.9,1.4,4.3,2.4
		c1.4,1,2.7,2.1,3.7,3.3c1,1.1,1.4,2.1,1,2.7c-0.5,0.5-0.8,0.8-0.9,0.9s-0.3,0.3-0.4,0.4s-0.3,0.4-0.6,0.6c-0.2,0.3-0.6,0.8-1.2,1.4
		l3.1-0.7c1.5-0.3,3-0.4,4.5-0.2c1.5,0.1,2.8,0.5,4.1,1.1c1.2,0.6,2.2,1.4,3,2.4c0.8,1,1.2,2.3,1.3,3.8c-4.9,0-9.2,0.5-13,1.6
		c-3.8,1-7.7,2.2-11.7,3.6c-4.3,5.8-8.7,12-13.2,18.7c-4.5,6.6-8.6,13.1-12.4,19.3c-3.8,6.2-7.1,12-9.9,17.3
		c-2.8,5.3-4.6,9.5-5.4,12.7c-0.7,2.4-0.4,3.5,0.8,3.4c1.2-0.1,2.7-0.9,4.6-2.2c1.9-1.3,3.9-2.9,5.9-4.7c2-1.8,3.5-3.2,4.6-4.1
		c3.3-3,6.7-6.3,10.2-9.9c3.5-3.7,6.9-7.4,10.4-11.3c3.4-3.9,6.8-7.7,10.2-11.7c3.3-3.9,6.6-7.6,9.7-11.2c1.3-0.9,2.5-1,3.5-0.4
		c1,0.6,1.2,1.5,0.6,2.5c-4.8,5.2-9.6,11-14.4,17.3c-4.8,6.3-9.5,12.3-14.2,17.9c-4.6,5.7-9.1,10.6-13.4,14.8
		c-4.3,4.2-8.4,6.8-12.2,7.7c-2.5,0.2-4.9,0-7.2-0.7c-2.3-0.7-4.3-1.6-5.9-2.9c-1.7-1.2-2.9-2.7-3.7-4.3c-0.8-1.6-1-3.3-0.5-5
		c0.5-2.2,1.7-5.6,3.6-10.2c1.9-4.6,4.2-9.9,7-15.9c2.4-5.1,5-10.2,7.9-15c2.9-4.9,6.4-10.1,10.4-15.6c-3.6,0.2-6.3,0.1-7.9-0.2
		c-1.7-0.3-2.9-1.4-3.6-3.2c1.8-0.6,3.5-1.1,5.1-1.6c1.6-0.5,3.1-0.9,4.5-1.4c1.4-0.4,2.8-0.9,4.2-1.4
		C271.2,407.1,272.7,406.6,274.3,406z"/>
	<path d="M330.8,442.4c2.4-3.6,3.9-6.2,4.4-7.9c0.6-1.6,0.5-2.5-0.2-2.5c-0.7,0-2,0.5-3.8,1.8c-1.8,1.2-3.9,2.9-6.3,5
		c-2.4,2.1-4.9,4.5-7.7,7.2c-2.7,2.7-5.3,5.5-7.8,8.2c-4,4.9-7.7,9.8-10.9,14.9c-3.3,5.1-6.4,9.9-9.4,14.4c-0.3,0.5-1.1,0.5-2.3,0
		s-2.5-1.1-3.9-2c-1.3-0.9-2.5-1.8-3.5-2.8c-1-1-1.5-1.7-1.4-2.2c1.7-7.6,4.4-15.3,8-23c3.6-7.7,7.8-15.3,12.7-22.9
		c4.8-7.6,10.1-15.1,15.8-22.7c5.7-7.5,11.6-15,17.6-22.5c0.5-0.6,1.4-0.6,2.8-0.1c1.4,0.5,2.7,1.2,4.1,2.1c1.3,1,2.5,2,3.4,3.1
		c1,1.1,1.2,2.1,0.9,2.7c-4.8,5.4-9,10.4-12.8,14.9c-3.8,4.5-7.3,9-10.6,13.5c-3.3,4.5-6.5,9.3-9.7,14.3c-3.1,5-6.4,10.8-9.9,17.4
		c-0.8,1.3-1.1,2.1-0.9,2.4c0.1,0.2,0.5,0.1,0.9-0.4c2.6-3.1,5.3-6.3,8.1-9.4c2.8-3.1,5.9-6,9.2-8.8c1.2-1,2.7-2.2,4.5-3.7
		c1.8-1.5,3.5-3,5.3-4.6c1.8-1.5,3.5-2.9,5.1-4.1c1.7-1.2,3-2,4.1-2.4c1.4-0.4,3.3-0.4,5.5,0.1c2.2,0.4,4.4,1.1,6.5,2.1
		c2.1,1,3.9,2.2,5.4,3.6c1.5,1.4,2.2,2.9,2.1,4.4c-2.4,3.1-4.6,5.8-6.5,8.4c-2,2.5-3.9,5.1-5.7,7.7c-1.9,2.6-3.7,5.2-5.6,8
		c-1.9,2.8-4,5.8-6.1,9.2c-0.9,1.3-1.6,3-2.2,5c-0.6,2-0.9,3.6-0.8,4.9c0.1,1.3,0.7,1.9,1.9,1.9c1.1,0,3-1.4,5.7-4.1
		c3.3-3.1,6.9-6.8,10.7-10.9c3.8-4.1,7.5-8.4,11.2-12.9c3.7-4.4,7.1-8.8,10.4-13.2c3.3-4.4,6.2-8.4,8.7-12c0.5-0.6,1.1-0.9,1.8-1
		c0.7-0.1,1.4,0,1.9,0.1c0.6,0.2,1,0.5,1.3,1c0.3,0.5,0.2,1-0.1,1.6c-2.6,3.6-5.8,8-9.6,13.1c-3.8,5.1-7.8,10.3-12,15.7
		c-4.2,5.4-8.4,10.5-12.5,15.4c-4.1,4.9-7.9,9-11.2,12.2c-0.3,0.3-1.1,0.6-2.3,1c-1.2,0.4-2.7,0.7-4.4,0.9c-1.7,0.2-3.4,0.4-5.1,0.4
		c-1.8,0-3.3-0.2-4.6-0.7c-1.3-0.6-2.4-1.5-3.2-2.7c-0.8-1.2-1.4-2.6-1.9-4c-0.4-1.4-0.7-2.9-0.8-4.3c-0.1-1.4,0-2.6,0.1-3.6
		c0.4-2.5,1-4.8,1.9-6.9c0.9-2.1,2-4.3,3.4-6.4c1.4-2.1,3-4.3,4.7-6.6C326.9,447.6,328.8,445.1,330.8,442.4z"/>
	<path d="M433.4,387.6c0.4-0.6,1.3-0.5,2.6,0.2c1.4,0.7,2.8,1.7,4.1,2.9c1.4,1.2,2.5,2.5,3.5,3.8c1,1.3,1.2,2.3,0.9,2.9
		c-1.7,1.6-4,4.2-6.9,7.8c-2.9,3.6-6.1,7.7-9.5,12.2s-7,9.5-10.6,14.7c-3.6,5.2-7,10.2-10,15.1c-3.1,4.9-5.6,9.3-7.8,13.4
		c-2.1,4.1-3.5,7.4-4.1,9.9c-0.7,2.8-0.9,4.6-0.6,5.6c0.2,1,0.7,1.3,1.5,1.1c0.8-0.2,1.8-0.8,3.1-1.9c1.3-1.1,2.7-2.4,4.2-3.8
		c3.1-3,6.5-6.2,10.2-9.9c3.6-3.6,7.3-7.5,11-11.6c3.7-4.1,7.4-8.3,11.2-12.7c3.7-4.4,7.2-8.8,10.6-13.2c0.6-0.7,1.2-1,1.9-1.1
		c0.7,0,1.2,0.1,1.7,0.4c0.5,0.3,0.8,0.7,1.1,1.2c0.2,0.5,0.2,1.1-0.2,1.6c-4.7,5.1-9.4,10.7-14.2,16.7c-4.8,6-9.6,11.7-14.2,17.2
		c-4.7,5.5-9.2,10.4-13.7,14.7c-4.4,4.3-8.6,7.4-12.5,9.2c-3.6-0.1-6.6-0.5-9-1.1c-2.4-0.6-4.2-1.4-5.6-2.3c-1.3-0.9-2.2-2-2.6-3.1
		c-0.4-1.2-0.4-2.5,0-3.8c0.7-2.5,1.3-4.7,1.9-6.7c0.6-2,1.1-3.9,1.7-5.6c-1.5,2.1-3,4.2-4.3,6.4c-1.3,2.2-2.6,4.2-3.9,6.1
		c-1.2,1.9-2.5,3.6-3.7,5.2c-1.2,1.6-2.6,2.8-4,3.8c-0.6,0.5-1.7,0.5-3.3,0c-1.6-0.5-3.4-1.2-5.2-2.1c-1.9-1-3.6-2-5.3-3
		c-1.7-1-2.8-2-3.4-2.7c-1.1-1.3-1.5-3.5-1.1-6.5c0.4-3,1.4-6.4,3-10.3c1.6-3.9,3.6-7.9,6.2-12c2.6-4.1,5.4-8.1,8.5-11.7
		c3.1-3.7,6.4-6.8,9.8-9.4c3.4-2.6,6.9-4.3,10.3-5.1c2.7-0.6,5.4-0.3,8.2,0.7c2.8,1.1,6,2.7,9.7,4.9v0.1L433.4,387.6z M394,440.3
		l7.4-10.3c-0.6-0.8-1.4-1.3-2.4-1.6c-1-0.3-2.3-0.1-3.9,0.6c-3.1,1.5-6.3,3.7-9.4,6.4c-3.1,2.8-6.1,5.9-8.8,9.3
		c-2.7,3.4-5.1,7-7.1,10.7c-2,3.7-3.4,7.2-4.3,10.7c-0.8,3.1-1.1,5.2-0.9,6.2c0.2,1,0.7,1.3,1.5,0.9c0.8-0.4,1.8-1.4,2.9-2.9
		c1.1-1.5,2.3-3.1,3.4-4.9c2.5-4,5.3-8.1,8.5-12.4c3.2-4.2,7.2-8,12.1-11.4L394,440.3z"/>
	<path d="M462.3,439.8c0.4-0.6,1.5-0.8,3.5-0.6c2,0.1,4,0.5,6.1,1.1c2.1,0.6,3.9,1.3,5.5,2.1c1.6,0.8,2.2,1.5,1.8,2.1
		c-4.3,5.1-7.7,10.1-10.2,14.8c-2.5,4.7-4.3,8.5-5.4,11.2c-1,2.6-1.5,4.3-1.4,5.3c0.1,1,0.7,1.4,1.6,1.2c0.9-0.1,2.1-0.7,3.5-1.8
		c1.4-1,2.9-2.3,4.4-3.7c3.1-3,6.5-6.2,10.2-9.9c3.6-3.6,7.3-7.5,11-11.6c3.7-4.1,7.4-8.3,11.2-12.7c3.7-4.4,7.2-8.8,10.6-13.2
		c0.6-0.7,1.2-1,1.9-1.1c0.7,0,1.2,0.1,1.7,0.4c0.5,0.3,0.8,0.7,1.1,1.2c0.2,0.5,0.2,1.1-0.2,1.6c-4.7,5.1-9.4,10.7-14.2,16.7
		c-4.8,6-9.6,11.7-14.2,17.2c-4.7,5.5-9.2,10.4-13.7,14.7c-4.4,4.3-8.6,7.4-12.5,9.2c-3.6-0.1-6.6-0.5-9-1.1
		c-2.4-0.6-4.2-1.4-5.6-2.3c-1.3-0.9-2.2-2-2.6-3.1c-0.4-1.2-0.4-2.5,0-3.8c0.7-2.5,1.3-4.7,1.9-6.7c0.6-2,1.1-3.9,1.7-5.6
		c-1.5,2.1-3,4.2-4.3,6.4c-1.3,2.2-2.6,4.2-3.9,6.1c-1.2,1.9-2.5,3.6-3.7,5.2c-1.2,1.6-2.6,2.8-4,3.8c-0.6,0.5-1.7,0.5-3.3,0
		c-1.6-0.5-3.4-1.2-5.2-2.1c-1.9-1-3.6-2-5.3-3c-1.7-1-2.8-2-3.4-2.7c-1.1-1.3-1.5-3.5-1.1-6.5c0.4-3,1.4-6.4,3-10.3
		c1.6-3.9,3.6-7.9,6.2-12c2.6-4.1,5.4-8.1,8.5-11.7c3.1-3.7,6.4-6.8,9.8-9.4c3.4-2.6,6.9-4.3,10.3-5.1c2.7-0.6,5.4-0.3,8.2,0.7
		c2.8,1.1,6,2.7,9.7,4.9c2.1,1.2,3.2,2.6,3.4,4c0.2,1.4-0.1,3.4-1,6c-2.2,1.8-3.6,2.3-4.3,1.6c-0.7-0.8-0.8-2-0.3-3.6
		c0.1-0.7,0-1.4-0.2-2.2c-0.2-0.8-0.7-1.5-1.3-2.1c-0.6-0.6-1.4-0.9-2.4-1.1c-1-0.1-2.1,0.1-3.4,0.8c-3.1,1.5-6.3,3.7-9.4,6.4
		c-3.1,2.8-6.1,5.9-8.8,9.3c-2.7,3.4-5.1,7-7.1,10.7c-2,3.7-3.4,7.2-4.3,10.7c-0.8,3.1-1.1,5.2-0.9,6.2c0.2,1,0.7,1.3,1.5,0.9
		c0.8-0.4,1.8-1.4,2.9-2.9c1.1-1.5,2.3-3.1,3.4-4.9c2.5-4,5.3-8.1,8.5-12.4c3.2-4.2,7.2-8,12.1-11.4L462.3,439.8z"/>
	<path d="M564.6,425.8c-2.4,2.9-4.7,5.9-7,9.2c-2.3,3.3-4.5,6.6-6.7,10.1c-2.2,3.4-4.3,6.8-6.3,10.2c-2,3.4-3.9,6.6-5.7,9.5
		c9.4-5.1,18-11,25.7-17.7c7.7-6.6,14.7-13.3,21.1-19.9c0.7-0.5,1.4-0.7,2.1-0.7c0.7,0,1.3,0.2,1.8,0.5c0.5,0.3,0.8,0.8,0.9,1.3
		c0.1,0.5-0.1,1.1-0.7,1.6c-2.6,2.8-5.4,5.7-8.4,8.9c-3,3.2-6.7,6.7-11,10.6c-4.3,3.9-9.6,8.1-15.8,12.8
		c-6.2,4.7-13.8,9.9-22.7,15.6c-2.5,4.5-5,8.9-7.5,13.2c-2.5,4.3-5.1,8.7-7.8,12.9c-2.7,4.4-4.8,7.8-6.4,10.4
		c-1.6,2.5-3.1,4.7-4.6,6.6c-2.8,3.4-5.7,6.5-8.9,9.1c-3.1,2.6-6.5,3.9-10,3.9c-1.8,0-3.8-0.6-6-1.7c-2.2-1.1-4-2.7-5.4-4.7
		c-1.4-2-2.1-4.3-2.1-6.9c0-2.6,1.2-5.3,3.6-8.2c1.5-1.8,3.7-4,6.6-6.6c2.9-2.6,6-5.2,9.3-7.9c3.3-2.7,6.5-5.2,9.7-7.7
		c3.1-2.4,5.8-4.4,8-5.9c2-3.8,4.2-7.8,6.5-11.9c2.3-4.1,4.7-8.4,7.2-12.8c-1.5,1.7-3.2,3.6-5,5.8c-1.8,2.1-3.6,4.3-5.3,6.4
		c-1.7,2.1-3.3,4-4.8,5.7c-1.5,1.7-2.6,3-3.5,3.9c-1.7,1.5-3.9,2-6.5,1.3c-2.6-0.7-5.1-1.8-7.5-3.5c-2.4-1.7-4.4-3.5-6.1-5.4
		c-1.7-1.9-2.4-3.3-2.2-4.3c3.7-8.7,8-16.9,12.8-24.7c4.8-7.8,10.1-15.5,15.8-23.2c0.5-0.6,1.6-0.9,3.4-0.9c1.8,0,3.7,0.1,5.6,0.4
		c1.9,0.3,3.6,0.7,5.1,1.3c1.5,0.6,2.2,1.2,2.1,1.9c-6,8.1-11.4,15.8-16.2,23.2c-4.8,7.3-8.6,14.6-11.4,21.7c-0.8,1.7-1,2.9-0.6,3.6
		c0.4,0.7,1,1,2,0.9c1-0.1,2.1-0.5,3.3-1.2c1.2-0.7,2.3-1.6,3.3-2.6c1.2-1.2,3.1-3.3,5.6-6.1c2.5-2.8,5.2-5.9,8.1-9.4
		c2.9-3.4,5.8-6.9,8.8-10.4c3-3.5,5.5-6.5,7.7-8.9c1.4-2.3,2.8-4.6,4.2-6.8c1.4-2.2,2.7-4.4,4.1-6.5c0.3-0.6,1.4-0.8,3.4-0.7
		c2,0.1,4.1,0.4,6.3,0.9c2.2,0.5,4.1,1.1,5.9,1.8C564.2,424.5,564.9,425.2,564.6,425.8z M506.9,492.7c-4.3,3.3-8.8,6.8-13.6,10.3
		c-4.8,3.5-9,7.2-12.6,11.2c-1,1.1-1.9,2.2-2.6,3.3c-0.7,1-1,2.2-0.8,3.4c0.3,1.4,1.2,2.4,2.7,2.8c1.5,0.4,2.8,0.4,3.9-0.1
		c2.4-0.9,5.4-3.9,8.9-9.1C496.4,509.3,501.1,502,506.9,492.7z"/>
	<path d="M118.6,636.1c-4,6.5-7.9,12.5-11.7,18c-3.8,5.5-7.8,11.4-12.1,17.6c-0.3,0.3-0.6,0.7-0.9,1.2c-0.3,0.5-0.5,1-0.6,1.3
		c0,0.3,0.1,0.4,0.4,0.2c0.3-0.2,1-0.9,2.1-2c3.9-4.3,7.9-9.1,12.1-14.5c4.1-5.4,8.2-10.7,12.2-15.8c4-5.1,7.8-9.8,11.3-13.9
		c3.5-4.1,6.7-7,9.4-8.7c1.8-1,3.8-1.5,5.9-1.2c2.1,0.2,4.1,0.7,5.9,1.5c1.9,0.8,3.5,1.6,4.9,2.6s2.3,1.7,2.7,2.1
		c4.1,5.1,6.1,10.6,6.1,16.5c0,6-1.6,11.9-4.7,17.9c-3.1,6-7.4,11.8-12.8,17.4c-5.4,5.6-11.5,10.5-18.2,14.8s-13.7,7.7-21,10.3
		c-7.3,2.6-14.3,3.9-21.1,3.9c-0.8,0-1.2-0.2-1.4-0.7c-0.2-0.5-0.2-1.1-0.1-1.8c0.1-0.7,0.4-1.5,0.6-2.3c0.3-0.8,0.6-1.5,0.9-2.1
		c2.5,0,5.6-0.6,9.2-1.9c3.7-1.2,7.6-3.1,11.7-5.5c4.1-2.4,8.2-5.4,12.4-8.9c4.2-3.5,8-7.4,11.5-11.9c3.5-4.4,6.5-9.3,9-14.7
		c2.5-5.3,4.2-11.1,4.9-17.3c0.1-1.5,0-3-0.4-4.3c-0.4-1.3-1-2.3-1.9-3c-0.9-0.7-1.9-0.9-3.1-0.8c-1.2,0.1-2.6,0.9-4.1,2.2
		c-4.6,3.8-9.6,8.8-14.9,14.9c-5.4,6.1-10.9,12.8-16.4,19.9c-5.6,7.2-11.1,14.7-16.7,22.4c-5.5,7.7-10.8,15.2-15.7,22.5
		c-4.9,7.2-9.3,13.9-13.3,20.1c-4,6.1-7.2,11.2-9.7,15.1c-0.8,0.8-1.8,0.8-3.2,0c-1.4-0.8-2.7-1.8-4.1-3.1c-1.3-1.3-2.4-2.7-3.2-4.1
		c-0.8-1.5-1-2.6-0.5-3.4c2.1-3,4.7-7,7.7-12.2c3-5.2,6.4-11,9.9-17.4c3.6-6.4,7.3-13.2,11.2-20.4s7.6-14.2,11.2-21
		c3.6-6.9,7.1-13.3,10.3-19.4c3.2-6.1,6.1-11.2,8.4-15.5c2.1-3.8,3.2-6.7,3.2-8.7c0-2-0.6-3.3-2-3.9c-1.4-0.6-3.4-0.7-6-0.3
		c-2.6,0.4-5.5,1.2-8.7,2.3c-3.2,1.1-6.6,2.4-10.1,3.9c-3.5,1.5-6.9,3-10.2,4.5c-3.3,1.5-6.3,2.8-9.2,4c-2.8,1.2-5.1,2-6.8,2.5
		c-5.4,1.5-10.1,2.3-14,2.2c-3.9,0-7.2-0.5-9.9-1.5c-2.7-1-4.9-2.2-6.5-3.7c-1.6-1.5-2.9-3-3.7-4.4c-0.9-1.4-1.4-2.6-1.6-3.6
		c-0.2-1-0.3-1.5-0.2-1.4c3.6,2.1,7.4,3.2,11.3,3.2c3.9,0,8.2-0.3,12.7-1.1c3.2-0.6,7-1.5,11.3-2.9c4.3-1.3,8.8-2.7,13.5-4.1
		s9.5-2.8,14.4-4c4.9-1.2,9.7-2,14.4-2.3c4.7-0.3,9.1,0,13.2,0.9c4.1,0.9,7.7,2.7,10.7,5.5c1.1,1.1,2.2,2.5,3.1,3.9
		c1,1.5,1.6,3.1,2.1,4.7c0.4,1.7,0.6,3.3,0.4,4.9C120.2,633.2,119.6,634.7,118.6,636.1z"/>
	<path d="M169.6,659.7c1.8-1.1,3.6-1.5,5.4-1c1.8,0.5,3.4,1.3,4.6,2.4c1.3,1.1,2.1,2.3,2.6,3.6s0.2,2.2-0.6,2.6
		c-1.1,0.7-2.3,1.6-3.8,2.7c-1.5,1.1-2.9,2.3-4.2,3.6c-1.3,1.2-2.4,2.4-3.2,3.4c-0.8,1.1-1.1,1.8-0.9,2.4c0.2,0.5,1.1,0.7,2.7,0.5
		c1.6-0.2,4.1-1,7.7-2.3c1.8-0.1,3.6,0.1,5.4,0.6c1.8,0.5,3.3,1.1,4.5,1.8c1.2,0.7,2.1,1.5,2.5,2.2c0.4,0.8,0.2,1.3-0.6,1.7
		c-4,3.1-7.4,6-10.3,8.7c-2.9,2.6-5.3,5.3-7.4,7.9c-2.1,2.7-3.9,5.5-5.4,8.5c-1.5,3-2.9,6.4-4,10.2c0.9,2.8,2.5,4.1,4.8,3.9
		c2.3-0.1,5.1-1.3,8.3-3.4c3.2-2.1,6.7-4.9,10.4-8.4c3.8-3.5,7.5-7.3,11.3-11.3c3.8-4,7.4-8,10.8-11.9c3.4-4,6.4-7.4,9-10.4
		c0.6-0.4,1.1-0.5,1.7-0.5c0.6,0,1.1,0.2,1.5,0.5c0.4,0.3,0.7,0.7,0.9,1.1c0.1,0.5,0,1-0.4,1.4c-2.9,3.7-6,7.7-9.3,11.8
		c-3.3,4.1-6.7,8.3-10.2,12.4c-3.5,4.1-7,8.1-10.5,11.9c-3.5,3.8-6.9,7.1-10.1,9.9c-3.2,2.8-6.2,5-9,6.7c-2.8,1.6-5.2,2.3-7.2,2
		c-3,0.3-5.8,0-8.6-1c-2.8-1-5.1-2.3-7-3.9c-1.9-1.7-3.3-3.6-4.2-5.6c-0.9-2.1-1-4.2-0.2-6.3c1.2-3.7,2.6-6.9,4.1-9.4
		c1.5-2.6,3.1-5,4.8-7.2c1.7-2.2,3.4-4.3,5.1-6.4c1.8-2.1,3.5-4.5,5.2-7.3c-3.8,0.2-7.1-0.2-9.8-1.3c-2.7-1-4.1-3.1-4.1-6.3
		c0-1.7,0.5-3.6,1.6-5.6c1-2,2.4-4,4.1-5.9c1.7-2,3.6-3.7,5.7-5.3C165.4,661.8,167.5,660.6,169.6,659.7z"/>
	<path d="M277.9,683.5c-4.1,2.4-8.6,3.9-13.4,4.6c-4.9,0.7-9.4,0.5-13.7-0.5c-1.6,4.3-4,8.8-7.1,13.5c-3.1,4.7-6.5,9.2-10.1,13.4
		c-3.6,4.2-7.2,8-10.9,11.3c-3.6,3.3-6.8,5.6-9.4,6.9c-1.3,0.8-2.8,1.2-4.4,1.2c-1.6,0-3.1-0.1-4.6-0.6c-1.5-0.4-2.8-1-4.1-1.7
		c-1.2-0.7-2.2-1.5-2.9-2.4c-0.9-1-1.8-2-2.9-2.9c-1-0.9-1.7-2-1.9-3.4c-0.4-3.1-0.1-6.5,0.8-10.2c0.9-3.8,2.3-7.6,4.1-11.5
		c1.8-3.9,4-7.7,6.6-11.4s5.4-7,8.4-9.9c3-2.9,6.1-5.3,9.4-7.1c3.3-1.9,6.6-2.9,9.8-3.1c2.1-0.2,4,0,5.6,0.6l3.7,1.3l2.7,2.6
		c1.5-0.7,3-0.4,4.3,0.7l1.4,1.1c0.7,0.3,1.3,0.6,1.9,0.9c0.6,0.3,1,0.8,1.1,1.4c3.8,2.4,7.6,3.8,11.4,4.3c3.8,0.5,7.4-0.5,10.9-3
		c2.1-0.6,3.5-0.3,4.3,0.8C279.8,681.5,279.4,682.5,277.9,683.5z M207.8,721.1c-0.7,3.7-0.4,5.7,0.9,6.1c1.3,0.3,3.1-0.4,5.5-2.2
		c2.4-1.8,5.1-4.5,8.2-7.9c3.1-3.5,6-7.2,8.9-11.1c2.9-3.9,5.6-7.8,7.9-11.6c2.4-3.8,4.1-7,5.1-9.6c-0.6-0.6-1.2-1.1-1.8-1.6
		c-0.6-0.5-1.2-1.2-1.6-1.9c-0.2-0.1-0.3-0.2-0.4-0.3c0-0.1-0.2-0.2-0.4-0.4c-3.6,1.7-7.5,4.5-11.5,8.2c-4.1,3.8-7.7,8.1-10.8,12.9
		c-2,3.1-4.1,6.3-6.1,9.7C209.7,714.8,208.4,718,207.8,721.1z"/>
	<path d="M305.3,635.4c0.5-0.6,1.4-0.6,2.9-0.1c1.4,0.5,2.9,1.2,4.3,2.1c1.4,1,2.6,2,3.6,3.1c1,1.1,1.3,2.1,0.9,2.7
		c-3.1,3.6-6.8,8-11.1,13.2c-4.2,5.2-8.7,11-13.5,17.3c-4.8,6.3-9.8,13.1-15,20.2c-5.2,7.2-10.4,14.5-15.6,22
		c6.8-5.6,13.6-11.4,20.5-17.3c6.9-5.9,13.8-11.4,20.7-16.6c0.7-0.5,1.4-0.7,2.1-0.6c0.7,0,1.3,0.2,1.7,0.6c0.4,0.3,0.7,0.8,0.7,1.3
		c0,0.5-0.3,1-0.9,1.5c-4.1,3.1-7.9,6-11.4,8.9c-3.5,2.9-7,5.7-10.4,8.6c-3.4,2.9-6.8,5.7-10.2,8.7c-3.4,2.9-7,5.9-10.9,9.1
		c0,2-0.5,4.5-1.4,7.5c-0.9,3-2.2,6.3-3.8,9.8c-1.6,3.5-3.5,7.2-5.7,11.1c-2.2,3.9-4.6,7.6-7.1,11.3c-2.5,3.7-5.2,7.2-7.9,10.5
		c-2.8,3.3-5.5,6.2-8.2,8.6c-2.3,2-4.4,3.1-6.2,3.4c-1.9,0.3-3.5,0.1-4.8-0.6c-1.3-0.7-2.3-1.6-3-2.9c-0.7-1.3-0.9-2.5-0.7-3.6
		c1.2-5.9,4.4-13.4,9.4-22.5c5-9.1,11.2-19.2,18.7-30.4c3.2-4.9,6.8-10,10.6-15.5c3.8-5.5,7.7-11,11.6-16.6
		c3.9-5.6,7.8-11.1,11.7-16.5c3.9-5.4,7.6-10.6,11.2-15.4c3.5-4.8,6.8-9.2,9.7-13.1C300.7,641.2,303.2,638,305.3,635.4z
		 M226.8,769.4c-1.1,3-1.7,4.9-1.8,5.9c0,1,0.3,1.3,0.9,0.9c0.7-0.3,1.6-1.1,2.8-2.4c1.2-1.2,2.4-2.6,3.7-4.2
		c1.3-1.6,2.5-3.1,3.6-4.6c1.1-1.5,1.9-2.7,2.5-3.4c3.7-5.3,7.3-11.1,10.7-17.3c3.4-6.2,6.5-13.1,9.3-20.6c-1.3,0.8-3.2,2.5-5.7,5.2
		c-2.5,2.7-5.2,6.1-8.2,10.3s-6.1,8.8-9.2,14C232.2,758.4,229.4,763.8,226.8,769.4z"/>
	<path d="M307,737.9c-6.1,0-11.2-5-11.2-11.2s5-11.2,11.2-11.2c6.1,0,11.2,5,11.2,11.2S313.2,737.9,307,737.9z"/>
	<path d="M583.9,612.8c0.6,2.5,0.3,4.8-0.8,7c-1.1,2.2-2.7,4.2-4.8,5.9c-2.1,1.8-4.5,3.2-7.2,4.4c-2.7,1.2-5.2,2-7.7,2.4
		c-4.3,0.7-9.2,0.8-14.8,0.5c-5.6-0.3-11.4-0.9-17.6-1.8c-6.1-0.9-12.4-1.8-18.7-2.9c-6.3-1.1-12.3-2.1-18.2-2.9
		c-9.3,8.5-18.7,17.3-28,26.3c-9.3,9.1-17.8,18.4-25.4,28c-7.6,9.6-14.1,19.5-19.4,29.6c-5.3,10.1-8.8,20.4-10.3,30.9
		c-0.4,1-1.4,1.5-3,1.4c-1.6-0.1-3.3-0.5-5.1-1.1c-1.8-0.7-3.4-1.5-4.9-2.6c-1.5-1-2.3-2-2.4-2.9c1.5-9.5,4-18.4,7.4-26.7
		c3.4-8.2,7.6-16.1,12.5-23.7c2-11.2,0.6-20.4-4.1-27.6c-4.8-7.2-12.5-12.1-23.2-14.6c-2.1-3.1-2.6-6.1-1.4-8.9
		c1.1-2.8,3.6-4.9,7.4-6.4c5.3-2.2,10.9-4.1,16.7-5.6c5.8-1.5,11.7-2.8,17.7-3.8c6-1,12.1-1.8,18.3-2.4c6.2-0.6,12.4-1.1,18.7-1.6
		c8.1-0.5,16.2-0.6,24.2-0.5c8,0.1,15.8,0.4,23.5,0.8c7.6,0.4,14.9,0.8,22,1.3c7,0.5,13.5,0.7,19.6,0.8c6.1,0,11.6-0.2,16.5-0.6
		C576.3,615.2,580.5,614.2,583.9,612.8z M424.3,672.2c6.6-8.7,13.8-16.9,21.6-24.8c7.8-7.9,15.9-15.8,24.3-23.8
		c-10.9-0.2-21.9,0.5-33.2,2.1c-11.3,1.6-21.9,4-32,7.2c-2.6,0.9-4.4,1.6-5.5,2.1c-1.1,0.5-1.6,1-1.5,1.4c0.1,0.4,0.7,0.9,1.9,1.5
		c1.1,0.6,2.6,1.3,4.3,2.3c3.4,2,6.5,4,9.1,6.1c2.6,2.1,4.8,4.3,6.5,6.9c1.7,2.5,3,5.3,3.7,8.4C424.2,664.6,424.5,668.2,424.3,672.2
		z"/>
	<path d="M488.2,690c0.4-0.6,1.5-0.8,3.5-0.6c2,0.1,4,0.5,6.1,1.1c2.1,0.6,3.9,1.3,5.5,2.1c1.6,0.8,2.2,1.5,1.8,2.1
		c-4.3,5.1-7.7,10.1-10.2,14.8c-2.5,4.7-4.3,8.5-5.4,11.2c-1,2.6-1.5,4.3-1.4,5.3c0.1,1,0.7,1.4,1.6,1.2c0.9-0.1,2.1-0.7,3.5-1.8
		c1.4-1,2.9-2.3,4.4-3.7c3.1-3,6.5-6.2,10.2-9.9c3.6-3.6,7.3-7.5,11-11.6c3.7-4.1,7.4-8.3,11.2-12.7c3.7-4.4,7.2-8.8,10.6-13.2
		c0.6-0.7,1.2-1,1.9-1.1c0.7,0,1.2,0.1,1.7,0.4c0.5,0.3,0.8,0.7,1.1,1.2c0.2,0.5,0.2,1.1-0.2,1.6c-4.7,5.1-9.4,10.7-14.2,16.7
		c-4.8,6-9.6,11.7-14.2,17.2c-4.7,5.5-9.2,10.4-13.7,14.7c-4.4,4.3-8.6,7.4-12.5,9.2c-3.6-0.1-6.6-0.5-9-1.1
		c-2.4-0.6-4.2-1.4-5.6-2.3c-1.3-0.9-2.2-2-2.6-3.1c-0.4-1.2-0.4-2.5,0-3.8c0.7-2.5,1.3-4.7,1.9-6.7c0.6-2,1.1-3.9,1.7-5.6
		c-1.5,2.1-3,4.2-4.3,6.4c-1.3,2.2-2.6,4.2-3.9,6.1c-1.2,1.9-2.5,3.6-3.7,5.2c-1.2,1.6-2.6,2.8-4,3.8c-0.6,0.5-1.7,0.5-3.3,0
		c-1.6-0.5-3.4-1.2-5.2-2.1c-1.9-1-3.6-2-5.3-3c-1.7-1-2.8-2-3.4-2.7c-1.1-1.3-1.5-3.5-1.1-6.5c0.4-3,1.4-6.4,3-10.3s3.6-7.9,6.2-12
		c2.6-4.1,5.4-8.1,8.5-11.7c3.1-3.7,6.4-6.8,9.8-9.4c3.4-2.6,6.9-4.3,10.3-5.1c2.7-0.6,5.4-0.3,8.2,0.7c2.8,1,6,2.7,9.7,4.9
		c2.1,1.2,3.2,2.6,3.4,4c0.2,1.4-0.1,3.4-1,6c-2.2,1.8-3.6,2.3-4.3,1.6c-0.7-0.8-0.8-2-0.3-3.6c0.1-0.7,0-1.4-0.2-2.2
		c-0.2-0.8-0.7-1.5-1.3-2.1c-0.6-0.6-1.4-0.9-2.4-1.1c-1-0.1-2.1,0.1-3.4,0.8c-3.1,1.5-6.3,3.7-9.4,6.4c-3.1,2.8-6.1,5.9-8.8,9.3
		c-2.7,3.4-5.1,7-7.1,10.7c-2,3.7-3.4,7.2-4.3,10.7c-0.8,3.1-1.1,5.2-0.9,6.2c0.2,1,0.7,1.3,1.5,0.9c0.8-0.4,1.8-1.4,2.9-2.9
		c1.1-1.5,2.3-3.1,3.4-4.9c2.5-4,5.3-8.1,8.5-12.4c3.2-4.2,7.2-8,12.1-11.4L488.2,690z"/>
	<path d="M565.6,635.4c0.5-0.6,1.4-0.6,2.8-0.1c1.4,0.5,2.8,1.2,4.1,2.1c1.4,1,2.5,2,3.4,3.1c0.9,1.1,1.2,2.1,0.8,2.7
		c-4.8,5.4-9,10.4-12.7,14.9c-3.7,4.5-7.1,9.1-10.3,13.7c-3.2,4.6-6.3,9.4-9.3,14.4c-3,5.1-6.2,10.9-9.7,17.4
		c-1,1.9-1.1,2.7-0.6,2.5c0.6-0.2,1.5-1,2.7-2.4c0.5-0.5,1.8-2,4-4.4c2.2-2.5,4.8-5.3,7.8-8.4c3-3.1,6.2-6.2,9.5-9.4
		c3.3-3.1,6.4-5.6,9.2-7.4c2.4-0.7,4.4-0.8,6-0.3c1.6,0.5,3,1.3,4.1,2.4c1.1,1.1,2.1,2.6,3,4.3c0.9,1.7,1.7,3.4,2.4,5.1
		c1.3,3,1.4,6.2,0.1,9.7c-1.2,3.5-3.2,6.8-5.9,10c-2.7,3.2-5.8,6-9.5,8.4c-3.7,2.4-7.3,4.1-10.8,4.9c0.6,3.1,1.7,4.9,3.3,5.6
		c1.6,0.7,3.6,0.6,5.9-0.4c2.3-1,4.8-2.6,7.7-4.9c2.8-2.3,5.7-5,8.7-8.1c3-3,5.9-6.3,8.9-9.7c3-3.4,5.7-6.8,8.4-10.1
		c2.6-3.3,5-6.3,7-9c2-2.7,3.6-4.9,4.8-6.5c0.3-0.6,0.8-1,1.6-1.2c0.8-0.2,1.5-0.3,2.2-0.1c0.7,0.1,1.1,0.5,1.4,1.1s0,1.4-0.9,2.4
		c-2.3,3.4-5.1,7.6-8.6,12.5c-3.4,4.9-7.3,9.9-11.5,14.9c-4.2,5.1-8.7,9.9-13.5,14.7c-4.8,4.7-9.6,8.6-14.4,11.5
		c-4.1,2.5-7.6,4-10.5,4.4c-2.9,0.5-5.3,0.3-7.2-0.6c-1.9-0.9-3.4-2.2-4.6-4.1c-1.1-1.9-2-4-2.5-6.1c-0.5-2.2-0.8-4.4-0.9-6.6
		c-0.1-2.2-0.1-4.1,0-5.6c7.5-3.6,13.6-7.7,18.1-12.2c4.5-4.5,7.7-8.9,9.7-13.2c0.3-0.8,0.5-1.7,0.7-2.7c0.2-1,0.2-2-0.1-2.7
		c-0.2-0.8-0.8-1.2-1.6-1.2c-0.9,0-2.1,0.5-3.9,1.8c-4.1,3-8.1,6.5-11.9,10.6c-3.9,4.1-7.6,8.4-11.1,13c-3.5,4.6-6.8,9.2-9.9,13.9
		c-3.1,4.7-5.9,9.2-8.5,13.4c-0.3,0.5-1.1,0.5-2.3,0c-1.2-0.5-2.5-1.1-3.9-2c-1.3-0.9-2.5-1.8-3.5-2.8s-1.5-1.7-1.4-2.2
		c1-7.9,3.1-15.8,6.3-23.5c3.2-7.8,7.3-15.5,12.1-23.1c4.8-7.6,10.2-15.2,16.2-22.7C553,650,559.2,642.7,565.6,635.4z"/>
	<path d="M634.9,679c-0.8,3.7-2.5,7.3-5.1,10.9c-2.6,3.5-5.8,6.8-9.5,9.8c-3.7,3-7.7,5.6-12.1,7.9c-4.3,2.2-8.6,3.9-12.8,5.1
		c-0.7,2.2-1.2,4.1-1.5,5.6c-0.3,1.5-0.3,2.8,0.1,3.9c0.7,4.8,4.8,5.9,12.3,3.4c5.4-1.7,10.5-4.4,15.1-7.9c4.6-3.6,9.1-7.6,13.4-12
		c4.3-4.4,8.5-9.1,12.6-14.1c4.1-5,8.3-9.7,12.7-14.3c0.7-0.7,1.3-1,1.9-1c0.6,0,1.1,0.2,1.6,0.6c0.4,0.4,0.7,0.9,0.9,1.4
		c0.1,0.6,0,1.1-0.4,1.7c-3.2,3.5-6.5,7.2-9.8,11.2c-3.3,3.9-6.6,7.8-9.9,11.7c-3.3,3.9-6.7,7.6-10,11.2c-3.3,3.6-6.6,6.8-9.9,9.6
		c-3.2,2.8-6.5,5.1-9.7,7c-3.2,1.9-6.3,3-9.4,3.4c-2.9,0.4-5.7,0.1-8.7-0.8c-2.9-0.9-5.6-2.2-7.9-3.9c-2.4-1.7-4.4-3.7-6-6
		c-1.6-2.3-2.6-4.6-2.9-6.9c-0.2-1.7,0.2-3.9,1.1-6.6c1-2.7,2.3-5.5,4-8.5c1.7-3,3.8-6.1,6.1-9.2s4.9-6.1,7.4-8.9
		c2.6-2.8,5.2-5.3,7.9-7.6c2.7-2.2,5.3-3.9,7.8-5.1c1.9-1,4.1-1.2,6.5-0.8c2.4,0.4,4.7,1.2,6.9,2.2c2.1,1.1,3.9,2.3,5.3,3.7
		C634.5,676.9,635.1,678.1,634.9,679z M627.5,678c-1.3,0.5-3.3,1.7-5.9,3.6c-2.6,2-5.3,4.2-8.2,6.9c-2.9,2.6-5.7,5.5-8.4,8.6
		c-2.7,3.1-4.8,6-6.4,8.8c2.2-1,4-1.8,5.4-2.4c1.4-0.7,2.6-1.3,3.6-1.9c1-0.6,1.9-1.3,2.8-2c0.9-0.7,1.9-1.5,3.1-2.5
		c0.6-0.5,1.4-1.3,2.5-2.5c1.1-1.2,2.2-2.5,3.4-4c1.2-1.5,2.4-3,3.6-4.5c1.2-1.5,2.3-2.9,3.1-4.2c0.8-1.3,1.4-2.3,1.7-3
		C628.2,678.1,628.1,677.8,627.5,678z"/>
	<path d="M711.3,676c-2.4,2.9-4.7,5.9-7,9.2s-4.5,6.6-6.7,10.1c-2.2,3.4-4.3,6.8-6.3,10.2c-2,3.4-3.9,6.6-5.7,9.5
		c9.4-5.1,18-11,25.7-17.7c7.7-6.6,14.7-13.3,21.1-19.9c0.7-0.5,1.4-0.7,2.1-0.7c0.7,0,1.3,0.2,1.8,0.5c0.5,0.3,0.8,0.8,0.9,1.3
		c0.1,0.5-0.1,1.1-0.7,1.6c-2.6,2.8-5.4,5.7-8.4,8.9c-3,3.2-6.7,6.7-11,10.6c-4.3,3.9-9.6,8.1-15.8,12.8
		c-6.2,4.7-13.8,9.9-22.7,15.6c-2.5,4.5-5,8.9-7.5,13.2c-2.5,4.3-5.1,8.7-7.8,12.9c-2.7,4.4-4.8,7.8-6.4,10.4
		c-1.6,2.5-3.1,4.7-4.6,6.6c-2.8,3.4-5.7,6.5-8.9,9.1c-3.1,2.6-6.5,3.9-10,3.9c-1.8,0-3.8-0.6-6-1.7c-2.2-1.1-4-2.7-5.4-4.7
		c-1.4-2-2.1-4.3-2.1-6.9c0-2.6,1.2-5.3,3.6-8.2c1.5-1.8,3.7-4,6.7-6.6c2.9-2.6,6-5.2,9.3-7.9c3.3-2.7,6.5-5.2,9.7-7.7
		c3.1-2.4,5.8-4.4,8-5.9c2-3.8,4.2-7.8,6.5-11.9c2.3-4.1,4.7-8.4,7.2-12.8c-1.5,1.7-3.2,3.6-5,5.8c-1.8,2.1-3.6,4.3-5.3,6.4
		c-1.7,2.1-3.3,4-4.8,5.7c-1.5,1.7-2.6,3-3.5,3.9c-1.7,1.5-3.9,2-6.5,1.3c-2.6-0.7-5.1-1.8-7.5-3.5c-2.4-1.7-4.4-3.5-6.1-5.4
		c-1.7-1.9-2.4-3.3-2.2-4.3c3.7-8.7,8-16.9,12.8-24.7c4.8-7.8,10.1-15.5,15.8-23.2c0.5-0.6,1.6-0.9,3.4-0.9c1.8,0,3.7,0.1,5.6,0.4
		c1.9,0.3,3.6,0.7,5.1,1.3c1.5,0.6,2.2,1.2,2.1,1.9c-6,8.1-11.4,15.8-16.2,23.2c-4.8,7.3-8.6,14.6-11.4,21.7c-0.8,1.7-1,2.9-0.6,3.6
		c0.4,0.7,1,1,2,0.9c1-0.1,2-0.5,3.3-1.2c1.2-0.7,2.3-1.6,3.3-2.6c1.2-1.2,3.1-3.3,5.6-6.1c2.5-2.8,5.2-5.9,8.1-9.4
		c2.9-3.4,5.8-6.9,8.8-10.4c3-3.5,5.5-6.5,7.7-8.9c1.4-2.3,2.8-4.6,4.2-6.8c1.4-2.2,2.7-4.4,4.1-6.5c0.3-0.6,1.4-0.8,3.4-0.7
		c2,0.1,4.1,0.4,6.3,0.9c2.2,0.5,4.1,1.1,5.9,1.8C710.9,674.8,711.6,675.5,711.3,676z M653.7,743c-4.3,3.3-8.8,6.8-13.6,10.3
		c-4.8,3.5-9,7.2-12.6,11.2c-1,1.1-1.9,2.2-2.6,3.3c-0.7,1-1,2.2-0.8,3.4c0.3,1.4,1.2,2.4,2.7,2.8c1.5,0.4,2.8,0.4,3.9-0.1
		c2.4-0.9,5.4-3.9,8.9-9.1C643.2,759.6,647.9,752.3,653.7,743z"/>
	<path d="M747.9,690c0.4-0.6,1.5-0.8,3.5-0.6c2,0.1,4,0.5,6.1,1.1c2.1,0.6,3.9,1.3,5.5,2.1c1.6,0.8,2.2,1.5,1.8,2.1
		c-4.3,5.1-7.7,10.1-10.2,14.8c-2.5,4.7-4.3,8.5-5.4,11.2c-1.1,2.6-1.5,4.3-1.4,5.3c0.1,1,0.7,1.4,1.6,1.2c0.9-0.1,2.1-0.7,3.5-1.8
		c1.4-1,2.9-2.3,4.4-3.7c3.1-3,6.5-6.2,10.2-9.9c3.6-3.6,7.3-7.5,11-11.6c3.7-4.1,7.4-8.3,11.2-12.7c3.7-4.4,7.2-8.8,10.6-13.2
		c0.6-0.7,1.2-1,1.9-1.1c0.7,0,1.2,0.1,1.7,0.4c0.5,0.3,0.8,0.7,1.1,1.2c0.2,0.5,0.2,1.1-0.2,1.6c-4.7,5.1-9.4,10.7-14.2,16.7
		c-4.8,6-9.6,11.7-14.2,17.2c-4.7,5.5-9.2,10.4-13.7,14.7c-4.4,4.3-8.6,7.4-12.5,9.2c-3.6-0.1-6.6-0.5-9-1.1
		c-2.4-0.6-4.2-1.4-5.6-2.3c-1.3-0.9-2.2-2-2.6-3.1c-0.4-1.2-0.4-2.5,0-3.8c0.7-2.5,1.3-4.7,1.9-6.7c0.6-2,1.1-3.9,1.7-5.6
		c-1.5,2.1-3,4.2-4.3,6.4c-1.3,2.2-2.6,4.2-3.9,6.1c-1.2,1.9-2.5,3.6-3.7,5.2c-1.2,1.6-2.6,2.8-4,3.8c-0.6,0.5-1.7,0.5-3.3,0
		c-1.6-0.5-3.4-1.2-5.2-2.1c-1.9-1-3.6-2-5.3-3c-1.7-1-2.8-2-3.4-2.7c-1.1-1.3-1.5-3.5-1.1-6.5c0.4-3,1.4-6.4,3-10.3
		c1.6-3.9,3.6-7.9,6.2-12c2.6-4.1,5.4-8.1,8.5-11.7c3.1-3.7,6.4-6.8,9.8-9.4c3.4-2.6,6.9-4.3,10.3-5.1c2.7-0.6,5.4-0.3,8.2,0.7
		c2.8,1,6,2.7,9.7,4.9c2.1,1.2,3.2,2.6,3.4,4c0.2,1.4-0.1,3.4-1,6c-2.2,1.8-3.6,2.3-4.3,1.6c-0.7-0.8-0.8-2-0.3-3.6
		c0.1-0.7,0-1.4-0.2-2.2c-0.2-0.8-0.7-1.5-1.3-2.1c-0.6-0.6-1.4-0.9-2.4-1.1c-1-0.1-2.1,0.1-3.4,0.8c-3.1,1.5-6.3,3.7-9.4,6.4
		c-3.1,2.8-6.1,5.9-8.8,9.3c-2.7,3.4-5.1,7-7.1,10.7c-2,3.7-3.4,7.2-4.3,10.7c-0.8,3.1-1,5.2-0.9,6.2c0.2,1,0.7,1.3,1.5,0.9
		c0.8-0.4,1.8-1.4,2.9-2.9c1.1-1.5,2.3-3.1,3.4-4.9c2.5-4,5.3-8.1,8.5-12.4c3.2-4.2,7.2-8,12.1-11.4L747.9,690z"/>
	<path d="M850,682.2c-3.3,3-6.3,6.3-9,10c-2.7,3.7-5.1,7.6-7.2,11.6l-1.1,1.9c0.8-0.9,1.5-1.7,2.2-2.6c0.7-0.9,1.5-1.7,2.2-2.6
		c4.7-5.4,9.6-10.6,14.7-15.4c5.1-4.8,10.4-8.9,15.8-12.4c1.4-0.4,3.3-0.4,5.5,0.1c2.2,0.4,4.4,1.1,6.5,2.1c2.1,1,3.9,2.2,5.4,3.6
		c1.5,1.4,2.2,2.9,2.1,4.4c-2.4,3.1-4.6,5.8-6.5,8.4c-2,2.5-3.9,5.1-5.7,7.7c-1.9,2.6-3.7,5.2-5.6,8c-1.9,2.8-4,5.8-6.1,9.2
		c-0.9,1.3-1.6,3-2.2,5c-0.6,2-0.9,3.6-0.8,4.9c0.1,1.3,0.7,1.9,1.9,1.9c1.1,0,3-1.4,5.7-4.1c3.3-3.1,6.9-6.8,10.7-10.9
		c3.8-4.1,7.5-8.4,11.2-12.9c3.7-4.4,7.2-8.8,10.4-13.2c3.3-4.4,6.2-8.4,8.7-12c0.5-0.6,1.1-0.9,1.8-1c0.7-0.1,1.4,0,1.9,0.1
		c0.6,0.2,1,0.5,1.3,1c0.3,0.5,0.2,1-0.1,1.6c-2.6,3.6-5.8,8-9.6,13.1c-3.8,5.1-7.8,10.3-12,15.7c-4.2,5.4-8.4,10.5-12.5,15.4
		c-4.1,4.9-7.9,9-11.2,12.2c-0.3,0.3-1,0.6-2.3,1c-1.2,0.4-2.7,0.7-4.4,0.9c-1.7,0.2-3.4,0.4-5.1,0.4c-1.8,0-3.3-0.2-4.6-0.7
		c-1.3-0.6-2.4-1.5-3.2-2.7c-0.8-1.2-1.4-2.6-1.9-4c-0.4-1.4-0.7-2.9-0.8-4.3c-0.1-1.4,0-2.6,0.1-3.6c0.4-2.5,1-4.8,1.9-6.9
		c0.9-2.1,2-4.3,3.4-6.4c1.4-2.1,3-4.3,4.7-6.6c1.8-2.2,3.6-4.7,5.6-7.5c2.6-4.1,3.8-6.7,3.8-7.9c0-1.1-1-1.3-2.8-0.4
		c-1.8,0.9-4.2,2.6-7.2,5.1c-3,2.5-6.2,5.4-9.6,8.7c-3.4,3.2-6.7,6.6-9.9,10.1c-3.2,3.5-5.9,6.6-8.1,9.4l-2,2.7l-1.9,4.4
		c-1.1,2.8-2.1,5-2.9,6.6c-0.8,1.7-1.5,2.4-1.9,2.2c-1.6-0.3-3.1-0.6-4.6-0.9c-1.4-0.3-2.6-0.8-3.6-1.5c-1-0.7-1.6-1.5-2.1-2.6
		c-0.4-1.1-0.5-2.6-0.1-4.5c0.5-2.6,1.3-5.3,2.6-8.2c1.2-2.9,2.6-5.7,4.2-8.5c1.6-2.8,3.2-5.5,4.9-8c1.7-2.5,3.2-4.8,4.5-6.8
		c2.5-3.6,4-6.2,4.6-7.8c0.6-1.6,0.5-2.4-0.2-2.4c-0.7,0-2,0.5-3.9,1.8c-1.9,1.2-4,2.9-6.4,5c-2.4,2.1-4.9,4.5-7.7,7.2
		c-2.7,2.7-5.3,5.4-7.8,8.2c-4,4.9-7.9,9.8-11.6,14.9c-3.7,5.1-7.1,9.9-10,14.4c-0.3,0.5-1,0.5-2.3,0c-1.2-0.5-2.5-1.1-3.9-2
		c-1.3-0.9-2.5-1.8-3.5-2.8c-1-1-1.5-1.7-1.4-2.2c1.7-7,3.6-13,5.6-18.2c2-5.1,4.1-9.8,6.4-13.9c2.2-4.1,4.6-7.8,6.9-11.1
		c2.4-3.3,4.8-6.6,7.3-9.8c0.5-0.6,1.5-0.9,3.1-0.9s3.2,0.2,4.8,0.5c1.6,0.3,3,0.8,4.1,1.5c1.1,0.7,1.5,1.3,1.1,2
		c-3.6,5.1-7.1,10.1-10.5,15c-3.4,5-6,10.3-7.9,16.2c1.2-1.5,2.7-3.2,4.3-5.1c1.6-1.9,3.3-3.7,5-5.6c1.7-1.9,3.5-3.7,5.2-5.4
		c1.8-1.8,3.5-3.4,5.1-4.8c1-1,2.3-2.2,4.1-3.6c1.8-1.5,3.6-3,5.5-4.4c1.9-1.5,3.8-2.8,5.6-4.1c1.8-1.2,3.2-2,4.3-2.4
		c1.4-0.4,3.2-0.4,5.4-0.1c2.2,0.3,4.3,1,6.4,1.9c2,0.9,3.8,2,5.2,3.4C849.4,679.2,850.1,680.6,850,682.2z"/>
	<path d="M925.1,690c0.4-0.6,1.5-0.8,3.5-0.6c2,0.1,4,0.5,6.1,1.1c2.1,0.6,3.9,1.3,5.5,2.1c1.6,0.8,2.2,1.5,1.8,2.1
		c-4.3,5.1-7.7,10.1-10.2,14.8c-2.5,4.7-4.3,8.5-5.4,11.2c-1.1,2.6-1.5,4.3-1.4,5.3c0.1,1,0.7,1.4,1.6,1.2c0.9-0.1,2.1-0.7,3.5-1.8
		c1.4-1,2.9-2.3,4.4-3.7c3.1-3,6.5-6.2,10.2-9.9c3.6-3.6,7.3-7.5,11-11.6c3.7-4.1,7.4-8.3,11.2-12.7c3.7-4.4,7.2-8.8,10.6-13.2
		c0.6-0.7,1.2-1,1.9-1.1c0.7,0,1.2,0.1,1.7,0.4c0.5,0.3,0.8,0.7,1.1,1.2c0.2,0.5,0.2,1.1-0.2,1.6c-4.7,5.1-9.4,10.7-14.2,16.7
		c-4.8,6-9.6,11.7-14.2,17.2c-4.7,5.5-9.2,10.4-13.7,14.7c-4.4,4.3-8.6,7.4-12.5,9.2c-3.6-0.1-6.6-0.5-9-1.1
		c-2.4-0.6-4.2-1.4-5.6-2.3c-1.3-0.9-2.2-2-2.6-3.1c-0.4-1.2-0.4-2.5,0-3.8c0.7-2.5,1.3-4.7,1.9-6.7c0.6-2,1.1-3.9,1.7-5.6
		c-1.5,2.1-3,4.2-4.3,6.4c-1.3,2.2-2.6,4.2-3.9,6.1c-1.2,1.9-2.5,3.6-3.7,5.2c-1.2,1.6-2.6,2.8-4,3.8c-0.6,0.5-1.7,0.5-3.3,0
		c-1.6-0.5-3.4-1.2-5.2-2.1c-1.9-1-3.6-2-5.3-3c-1.7-1-2.8-2-3.4-2.7c-1.1-1.3-1.5-3.5-1.1-6.5c0.4-3,1.4-6.4,3-10.3
		c1.6-3.9,3.6-7.9,6.2-12c2.6-4.1,5.4-8.1,8.5-11.7c3.1-3.7,6.4-6.8,9.8-9.4c3.4-2.6,6.9-4.3,10.3-5.1c2.7-0.6,5.4-0.3,8.2,0.7
		c2.8,1,6,2.7,9.7,4.9c2.1,1.2,3.2,2.6,3.4,4c0.2,1.4-0.1,3.4-1,6c-2.2,1.8-3.6,2.3-4.3,1.6c-0.7-0.8-0.8-2-0.3-3.6
		c0.1-0.7,0-1.4-0.2-2.2c-0.2-0.8-0.7-1.5-1.3-2.1c-0.6-0.6-1.4-0.9-2.4-1.1c-1-0.1-2.1,0.1-3.4,0.8c-3.1,1.5-6.3,3.7-9.4,6.4
		c-3.1,2.8-6.1,5.9-8.8,9.3c-2.7,3.4-5.1,7-7.1,10.7c-2,3.7-3.4,7.2-4.3,10.7c-0.8,3.1-1,5.2-0.9,6.2c0.2,1,0.7,1.3,1.5,0.9
		c0.8-0.4,1.8-1.4,2.9-2.9c1.1-1.5,2.3-3.1,3.4-4.9c2.5-4,5.3-8.1,8.5-12.4c3.2-4.2,7.2-8,12.1-11.4L925.1,690z"/>
</g>
</svg>
